<?xml version="1.0" standalone="no"?>
<!DOCTYPE svg PUBLIC "-//W3C//DTD SVG 20010904//EN"
 "http://www.w3.org/TR/2001/REC-SVG-20010904/DTD/svg10.dtd">
<svg version="1.0" xmlns="http://www.w3.org/2000/svg"
 width="298.000000pt" height="298.000000pt" viewBox="0 0 298.000000 298.000000"
 preserveAspectRatio="xMidYMid meet">

<g transform="translate(0.000000,298.000000) scale(0.100000,-0.100000)"
fill="#000000" stroke="none">
<path d="M0 1490 l0 -1490 1490 0 1490 0 0 1490 0 1490 -1490 0 -1490 0 0
-1490z m1682 926 c104 -37 165 -146 138 -245 -22 -84 -124 -161 -212 -161 -78
1 -162 56 -187 123 -20 53 -14 146 14 193 49 83 156 122 247 90z m58 -531 c6
-8 9 -19 5 -24 -5 -9 -13 -47 -45 -221 -5 -25 -23 -112 -40 -195 -17 -82 -45
-217 -62 -300 -16 -82 -34 -168 -39 -190 -15 -74 -11 -143 10 -164 17 -17 25
-18 58 -9 21 6 54 18 73 28 55 28 159 138 199 210 37 64 37 65 84 68 58 4 67
-12 41 -71 -49 -113 -151 -236 -253 -306 -106 -72 -191 -101 -298 -101 -118 0
-194 46 -245 149 -21 41 -23 60 -22 181 0 102 6 160 23 240 13 58 27 123 31
145 9 44 64 312 86 415 8 36 17 81 21 100 10 60 10 60 193 60 134 0 170 -3
180 -15z"/>
</g>
</svg>
